<?xml version="1.0" encoding="UTF-8"?>
<svg xmlns="http://www.w3.org/2000/svg" xmlns:xlink="http://www.w3.org/1999/xlink" width="64pt" height="37pt" viewBox="0 0 64 37" version="1.1">
<g id="surface166">
<path style="fill:none;stroke-width:0.96;stroke-linecap:square;stroke-linejoin:miter;stroke:rgb(84.999084%,84.999084%,84.999084%);stroke-opacity:1;stroke-miterlimit:3.25;" d="M 159.332031 13 L 148.667969 -5.476563 L 127.332031 -5.476563 L 116.667969 13 L 127.332031 31.476563 L 148.667969 31.476563 L 159.332031 13 " transform="matrix(1,0,0,1,-74,-13)"/>
<path style="fill:none;stroke-width:0.96;stroke-linecap:square;stroke-linejoin:miter;stroke:rgb(84.999084%,84.999084%,84.999084%);stroke-opacity:1;stroke-miterlimit:3.25;" d="M 116.667969 -23.949219 L 95.332031 -23.949219 L 84.667969 -5.476563 L 95.332031 13 L 116.667969 13 L 127.332031 -5.476563 L 116.667969 -23.949219 " transform="matrix(1,0,0,1,-74,-13)"/>
<path style="fill:none;stroke-width:0.96;stroke-linecap:square;stroke-linejoin:miter;stroke:rgb(84.999084%,84.999084%,84.999084%);stroke-opacity:1;stroke-miterlimit:3.25;" d="M 63.332031 -5.476563 L 52.667969 13 L 63.332031 31.476563 L 84.667969 31.476563 L 95.332031 13 L 84.667969 -5.476563 L 63.332031 -5.476563 " transform="matrix(1,0,0,1,-74,-13)"/>
<path style="fill:none;stroke-width:0.96;stroke-linecap:square;stroke-linejoin:miter;stroke:rgb(84.999084%,84.999084%,84.999084%);stroke-opacity:1;stroke-miterlimit:3.25;" d="M 52.667969 49.949219 L 63.332031 68.425781 L 84.667969 68.425781 L 95.332031 49.949219 L 84.667969 31.476563 L 63.332031 31.476563 L 52.667969 49.949219 " transform="matrix(1,0,0,1,-74,-13)"/>
<path style="fill:none;stroke-width:0.96;stroke-linecap:square;stroke-linejoin:miter;stroke:rgb(84.999084%,84.999084%,84.999084%);stroke-opacity:1;stroke-miterlimit:3.25;" d="M 95.332031 86.902344 L 116.667969 86.902344 L 127.332031 68.425781 L 116.667969 49.949219 L 95.332031 49.949219 L 84.667969 68.425781 L 95.332031 86.902344 " transform="matrix(1,0,0,1,-74,-13)"/>
<path style="fill:none;stroke-width:0.96;stroke-linecap:square;stroke-linejoin:miter;stroke:rgb(84.999084%,84.999084%,84.999084%);stroke-opacity:1;stroke-miterlimit:3.25;" d="M 148.667969 68.425781 L 159.332031 49.949219 L 148.667969 31.476563 L 127.332031 31.476563 L 116.667969 49.949219 L 127.332031 68.425781 L 148.667969 68.425781 " transform="matrix(1,0,0,1,-74,-13)"/>
</g>
</svg>
